<svg width="22" height="26" viewBox="0 0 22 26" fill="none" xmlns="http://www.w3.org/2000/svg">
<path fill-rule="evenodd" clip-rule="evenodd" d="M1.75023 5.96632V13.6271C1.75023 19.3471 6.81717 22.097 10.8869 24.307L10.9955 24.3651L11.1056 24.307C15.1754 22.097 20.2423 19.3471 20.2423 13.6271V5.96632L10.9956 1.61054L1.75022 5.96632H1.75023ZM10.9955 26.0016C10.8701 26.0016 10.7447 25.9695 10.63 25.9083L10.1574 25.6514C5.96378 23.3741 0.220825 20.2571 0.220825 13.6271V5.48147C0.220825 5.18477 0.392127 4.91559 0.659765 4.78865L10.6713 0.0734704C10.8762 -0.0244088 11.1164 -0.0244088 11.3213 0.0734704L21.3328 4.78868C21.6005 4.91562 21.7718 5.1848 21.7718 5.4815V13.6271C21.7718 20.2571 16.0273 23.3741 11.8352 25.6514L11.3626 25.9083C11.2479 25.9695 11.1225 26.0016 10.9955 26.0016ZM17.3216 18.5855H13.0775L11.8372 17.3467V16.2118H10.2558V14.6304H9.12245L8.33023 13.8382C8.30423 13.8397 8.27823 13.8397 8.25223 13.8397C5.86788 13.8397 3.92857 11.9004 3.92857 9.51607C3.92857 7.13172 5.86788 5.19089 8.25223 5.19089C10.6366 5.19089 12.5759 7.13172 12.5759 9.51607C12.5759 9.54207 12.5759 9.56807 12.5743 9.59254L17.3216 14.3414L17.3216 18.5855ZM13.7107 17.0561H15.7922V14.9745L10.9792 10.1584L11.0327 9.65372C11.0465 7.97595 9.79235 6.72032 8.25223 6.72032C6.7121 6.72032 5.45798 7.97595 5.45798 9.51607C5.45798 11.0577 6.7121 12.3103 8.25223 12.3103L8.89153 12.2384L9.75563 13.101H11.7852V14.6824H13.3666V16.7135L13.7107 17.0561ZM9.46674 9.55981C9.46674 10.193 8.95284 10.7069 8.31968 10.7069C7.68649 10.7069 7.17262 10.193 7.17262 9.55981C7.17262 8.92663 7.68649 8.41275 8.31968 8.41275C8.95284 8.41275 9.46674 8.92663 9.46674 9.55981Z" fill="#F1F1F1"/>
</svg>
