<svg  viewBox="0 0 120 66" fill="none" xmlns="http://www.w3.org/2000/svg">
<path d="M-0.000209808 14.5714H5.14265V19.7143H-0.000209808V14.5714ZM5.14265 14.5714H10.2855V19.7143H5.14265V14.5714ZM10.2855 14.5714H15.4284V19.7143H10.2855V14.5714ZM15.4284 14.5714H20.5712V19.7143H15.4284V14.5714ZM20.5712 14.5714H25.7141V19.7143H20.5712V14.5714ZM25.7141 14.5714H30.8569V19.7143H25.7141V14.5714ZM25.7141 19.7143H30.8569V24.8571H25.7141V19.7143ZM20.5712 19.7143H25.7141V24.8571H20.5712V19.7143ZM15.4284 19.7143H20.5712V24.8571H15.4284V19.7143ZM10.2855 19.7143H15.4284V24.8571H10.2855V19.7143ZM5.14265 19.7143H10.2855V24.8571H5.14265V19.7143ZM-0.000209808 19.7143H5.14265V24.8571H-0.000209808V19.7143ZM10.2855 24.8571H15.4284V30H10.2855V24.8571ZM10.2855 30H15.4284V35.1429H10.2855V30ZM10.2855 35.1429H15.4284V40.2857H10.2855V35.1429ZM10.2855 40.2857H15.4284V45.4286H10.2855V40.2857ZM10.2855 45.4286H15.4284V50.5714H10.2855V45.4286ZM10.2855 50.5714H15.4284V55.7143H10.2855V50.5714ZM15.4284 45.4286H20.5712V50.5714H15.4284V45.4286ZM15.4284 40.2857H20.5712V45.4286H15.4284V40.2857ZM15.4284 35.1429H20.5712V40.2857H15.4284V35.1429ZM15.4284 30H20.5712V35.1429H15.4284V30ZM15.4284 24.8571H20.5712V30H15.4284V24.8571ZM15.4284 50.5714H20.5712V55.7143H15.4284V50.5714ZM15.4284 55.7143H20.5712V60.8571H15.4284V55.7143ZM15.4284 60.8571H20.5712V66H15.4284V60.8571ZM10.2855 60.8571H15.4284V66H10.2855V60.8571ZM10.2855 55.7143H15.4284V60.8571H10.2855V55.7143Z" fill="white"/>
<path d="M41.7993 58.8572H46.9422V64.0001H41.7993V58.8572ZM41.7993 53.7144H46.9422V58.8572H41.7993V53.7144ZM41.7993 48.5715H46.9422V53.7144H41.7993V48.5715ZM36.6565 53.7144H41.7993V58.8572H36.6565V53.7144ZM36.6565 48.5715H41.7993V53.7144H36.6565V48.5715ZM31.5136 48.5715H36.6565V53.7144H31.5136V48.5715ZM36.6565 43.4287H41.7993V48.5715H36.6565V43.4287ZM46.9422 48.5715H52.0851V53.7144H46.9422V48.5715ZM46.9422 53.7144H52.0851V58.8572H46.9422V53.7144ZM52.0851 48.5715H57.2279V53.7144H52.0851V48.5715ZM31.5136 43.4287H36.6565V48.5715H31.5136V43.4287ZM36.6565 38.2858H41.7993V43.4287H36.6565V38.2858ZM31.5136 38.2858H36.6565V43.4287H31.5136V38.2858ZM31.5136 33.143H36.6565V38.2858H31.5136V33.143ZM36.6565 33.143H41.7993V38.2858H36.6565V33.143ZM36.6565 28.0001H41.7993V33.143H36.6565V28.0001ZM31.5136 28.0001H36.6565V33.143H31.5136V28.0001ZM31.5136 22.8572H36.6565V28.0001H31.5136V22.8572ZM36.6565 22.8572H41.7993V28.0001H36.6565V22.8572ZM31.5136 0H36.6565V17.7144H31.5136V0ZM36.6565 0H41.7993V17.7144H36.6565V0ZM36.6565 17.7144H41.7993V22.8572H36.6565V17.7144ZM31.5136 17.7144H36.6565V22.8572H31.5136V17.7144ZM67.5136 58.8572H72.6565V64.0001H67.5136V58.8572ZM67.5136 53.7144H72.6565V58.8572H67.5136V53.7144ZM67.5136 48.5715H72.6565V53.7144H67.5136V48.5715ZM62.3708 53.7144H67.5136V58.8572H62.3708V53.7144ZM62.3708 48.5715H67.5136V53.7144H62.3708V48.5715ZM57.2279 48.5715H62.3708V53.7144H57.2279V48.5715ZM57.2279 43.4287H62.3708V48.5715H57.2279V43.4287ZM72.6565 48.5715H77.7993V53.7144H72.6565V48.5715ZM72.6565 53.7144H77.7993V58.8572H72.6565V53.7144ZM72.6565 43.4287H77.7993V48.5715H72.6565V43.4287ZM77.7993 48.5715H82.9422V53.7144H77.7993V48.5715ZM77.7993 43.4287H82.9422V48.5715H77.7993V43.4287ZM52.0851 43.4287H57.2279V48.5715H52.0851V43.4287ZM72.6565 0H77.7993V17.7144H72.6565V0ZM77.7993 0H82.9422V17.7144H77.7993V0ZM77.7993 17.7144H82.9422V22.8572H77.7993V17.7144ZM77.7993 22.8572H82.9422V28.0001H77.7993V22.8572ZM77.7993 28.0001H82.9422V33.143H77.7993V28.0001ZM77.7993 33.143H82.9422V38.2858H77.7993V33.143ZM72.6565 33.143H77.7993V38.2858H72.6565V33.143ZM72.6565 38.2858H77.7993V43.4287H72.6565V38.2858ZM72.6565 28.0001H77.7993V33.143H72.6565V28.0001ZM72.6565 22.8572H77.7993V28.0001H72.6565V22.8572ZM72.6565 17.7144H77.7993V22.8572H72.6565V17.7144ZM77.7993 38.2858H82.9422V43.4287H77.7993V38.2858ZM57.2279 38.2858H62.3708V43.4287H57.2279V38.2858ZM52.0851 38.2858H57.2279V43.4287H52.0851V38.2858ZM52.0851 33.143H57.2279V38.2858H52.0851V33.143ZM57.2279 33.143H62.3708V38.2858H57.2279V33.143ZM57.2279 28.0001H62.3708V33.143H57.2279V28.0001ZM52.0851 28.0001H57.2279V33.143H52.0851V28.0001ZM52.0851 22.8572H57.2279V28.0001H52.0851V22.8572ZM57.2279 22.8572H62.3708V28.0001H57.2279V22.8572ZM57.2279 17.7144H62.3708V22.8572H57.2279V17.7144ZM52.0851 17.7144H57.2279V22.8572H52.0851V17.7144Z" fill="white"/>
<path d="M94.1431 14.5714H99.2859V19.7143H94.1431V14.5714ZM89.0002 14.5714H94.1431V19.7143H89.0002V14.5714ZM89.0002 19.7143H94.1431V24.8571H89.0002V19.7143ZM94.1431 19.7143H99.2859V24.8571H94.1431V19.7143ZM99.2859 19.7143H104.429V24.8571H99.2859V19.7143ZM99.2859 14.5714H104.429V19.7143H99.2859V14.5714ZM104.429 14.5714H109.572V19.7143H104.429V14.5714ZM109.572 14.5714H114.715V19.7143H109.572V14.5714ZM109.572 19.7143H114.715V24.8571H109.572V19.7143ZM104.429 19.7143H109.572V24.8571H104.429V19.7143ZM109.572 24.8571H114.715V30H109.572V24.8571ZM114.715 19.7143H119.857V24.8571H114.715V19.7143ZM114.715 24.8571H119.857V30H114.715V24.8571ZM114.715 50.5714H119.857V55.7143H114.715V50.5714ZM114.715 55.7143H119.857V60.8571H114.715V55.7143ZM109.572 55.7143H114.715V60.8571H109.572V55.7143ZM109.572 50.5714H114.715V55.7143H109.572V50.5714ZM104.429 55.7143H109.572V60.8571H104.429V55.7143ZM109.572 60.8571H114.715V66H109.572V60.8571ZM104.429 60.8571H109.572V66H104.429V60.8571ZM99.2859 60.8571H104.429V66H99.2859V60.8571ZM99.2859 55.7143H104.429V60.8571H99.2859V55.7143ZM94.1431 60.8571H99.2859V66H94.1431V60.8571ZM89.0002 60.8571H94.1431V66H89.0002V60.8571ZM89.0002 55.7143H94.1431V60.8571H89.0002V55.7143ZM94.1431 55.7143H99.2859V60.8571H94.1431V55.7143ZM94.1431 50.5714H99.2859V55.7143H94.1431V50.5714ZM89.0002 50.5714H94.1431V55.7143H89.0002V50.5714ZM83.8574 55.7143H89.0002V60.8571H83.8574V55.7143ZM83.8574 50.5714H89.0002V55.7143H83.8574V50.5714ZM83.8574 45.4286H89.0002V50.5714H83.8574V45.4286ZM83.8574 40.2857H89.0002V45.4286H83.8574V40.2857ZM83.8574 35.1429H89.0002V40.2857H83.8574V35.1429ZM83.8574 30H89.0002V35.1429H83.8574V30ZM83.8574 24.8571H89.0002V30H83.8574V24.8571ZM89.0002 24.8571H94.1431V30H89.0002V24.8571ZM83.8574 19.7143H89.0002V24.8571H83.8574V19.7143ZM94.1431 24.8571H99.2859V30H94.1431V24.8571ZM89.0002 30H94.1431V35.1429H89.0002V30ZM89.0002 35.1429H94.1431V40.2857H89.0002V35.1429ZM89.0002 40.2857H94.1431V45.4286H89.0002V40.2857ZM89.0002 45.4286H94.1431V50.5714H89.0002V45.4286Z" fill="white"/>
</svg>
